<?xml version="1.0" encoding="utf-8"?>
<!-- Generator: Adobe Illustrator 16.0.0, SVG Export Plug-In . SVG Version: 6.00 Build 0)  -->
<!DOCTYPE svg PUBLIC "-//W3C//DTD SVG 1.1//EN" "http://www.w3.org/Graphics/SVG/1.1/DTD/svg11.dtd">
<svg version="1.1" id="レイヤー_1" xmlns="http://www.w3.org/2000/svg" xmlns:xlink="http://www.w3.org/1999/xlink" x="0px"
	 y="0px" width="20px" height="20px" viewBox="0 0 20 20" style="enable-background:new 0 0 20 20;" xml:space="preserve">
<style type="text/css">
<![CDATA[
	.st0{fill:#F8B193;}
	.st1{fill:#FFFFFF;}
]]>
</style>
<path class="st0" d="M19.281,10c0,5.125-4.155,9.281-9.281,9.281S0.719,15.125,0.719,10c0-5.127,4.155-9.281,9.281-9.281
	S19.281,4.873,19.281,10"/>
<path class="st1" d="M10.233,3.747C9.51,3.163,8.889,3.011,8.042,3.303c-0.82,0.285-1.762,0.9-2.801,1.938
	c-1.038,1.038-1.653,1.979-1.938,2.8C3.011,8.889,3.163,9.51,3.747,10.233c0.98,1.211,2.008,2.211,3.072,3.071
	c0.724,0.584,1.343,0.736,2.19,0.444c0.821-0.285,1.763-0.9,2.801-1.939c1.038-1.037,1.654-1.979,1.938-2.8
	c0.295-0.848,0.141-1.468-0.442-2.19C12.444,5.755,11.444,4.728,10.233,3.747z"/>
<path class="st0" d="M6.879,6.879C6.053,7.723,5.348,8.23,4.613,8.54C4.496,8.589,4.406,8.742,4.47,8.915
	c0.089,0.241,0.242,0.249,0.362,0.217c0.695-0.187,1.68-0.901,2.54-1.76c0.986-0.987,1.641-1.936,1.946-2.815
	C9.38,4.379,9.421,4.213,9.444,4.053c0.147,0.082,0.3,0.188,0.465,0.324c1.059,0.869,1.902,1.699,2.766,2.766
	c0.523,0.647,0.64,1.095,0.36,1.802c-0.293,0.731-0.869,1.531-1.714,2.377c-0.845,0.845-1.645,1.421-2.377,1.714
	c-0.705,0.279-1.157,0.167-1.802-0.36c-1.06-0.871-1.896-1.708-2.765-2.766C3.849,9.267,3.737,8.813,4.019,8.107
	c0.292-0.732,0.867-1.53,1.713-2.377c0.846-0.845,1.644-1.42,2.376-1.713c0.336-0.133,0.603,0.052,0.48,0.405
	C8.365,5.063,7.795,5.946,6.879,6.879z"/>
<path class="st1" d="M9.699,14.7c-0.143,0.141-0.112,0.234-0.016,0.329l1.732,1.733c0.095,0.095,0.189,0.125,0.331-0.017
	c0.141-0.14,0.11-0.233,0.015-0.33l-1.732-1.731C9.934,14.589,9.841,14.559,9.699,14.7z"/>
<path class="st1" d="M14.7,9.699c-0.142,0.142-0.111,0.233-0.015,0.33l1.731,1.732c0.096,0.095,0.189,0.125,0.33-0.015
	c0.141-0.142,0.11-0.236,0.016-0.331L15.03,9.684C14.934,9.587,14.841,9.557,14.7,9.699z"/>
<path class="st1" d="M12.382,12.382c-0.143,0.141-0.112,0.233-0.016,0.33l1.732,1.732c0.095,0.095,0.189,0.125,0.33-0.016
	c0.142-0.141,0.11-0.235,0.015-0.33l-1.731-1.732C12.616,12.27,12.522,12.239,12.382,12.382z"/>
<path class="st1" d="M6.645,9.426c-0.21,0.209-0.21,0.549,0,0.758c0.209,0.209,0.549,0.209,0.759,0c0.209-0.209,0.209-0.549,0-0.758
	C7.193,9.217,6.854,9.217,6.645,9.426z"/>
<path class="st1" d="M7.345,11.34c-0.237,0.237-0.237,0.622,0,0.86c0.238,0.237,0.623,0.237,0.861,0c0.237-0.238,0.237-0.623,0-0.86
	C7.968,11.102,7.583,11.102,7.345,11.34z"/>
<path class="st1" d="M11.341,8.206c0.236,0.237,0.621,0.237,0.859,0c0.237-0.238,0.237-0.623,0-0.861
	c-0.238-0.236-0.623-0.236-0.859,0C11.102,7.583,11.102,7.968,11.341,8.206z"/>
<path class="st1" d="M10.185,7.403c0.209-0.211,0.209-0.55,0-0.759c-0.21-0.21-0.55-0.21-0.759,0c-0.209,0.209-0.209,0.548,0,0.759
	C9.635,7.612,9.975,7.612,10.185,7.403z"/>
<path class="st1" d="M10.555,10.538c0.448-0.448,0.538-1.141,0.008-1.617c-0.087-0.079-0.199-0.07-0.282,0.024
	c-0.168,0.188-0.278,0.379-0.608,0.709c-0.33,0.332-0.521,0.442-0.71,0.608c-0.096,0.084-0.104,0.195-0.024,0.283
	C9.415,11.075,10.106,10.986,10.555,10.538z"/>
<path class="st0" d="M10.352,10.336c-0.155,0.154-0.406,0.281-0.564,0.256c-0.021-0.004-0.036-0.021-0.037-0.041
	c-0.008-0.182,0.092-0.41,0.25-0.567s0.387-0.259,0.568-0.25c0.02,0.001,0.036,0.017,0.04,0.036
	C10.635,9.929,10.508,10.18,10.352,10.336z"/>
</svg>
