<?xml version="1.0" encoding="utf-8"?>
<!-- Generator: Adobe Illustrator 16.0.0, SVG Export Plug-In . SVG Version: 6.00 Build 0)  -->
<!DOCTYPE svg PUBLIC "-//W3C//DTD SVG 1.1//EN" "http://www.w3.org/Graphics/SVG/1.1/DTD/svg11.dtd">
<svg version="1.1" id="レイヤー_1" xmlns="http://www.w3.org/2000/svg" xmlns:xlink="http://www.w3.org/1999/xlink" x="0px"
	 y="0px" width="20px" height="20px" viewBox="0 0 20 20" style="enable-background:new 0 0 20 20;" xml:space="preserve">
<style type="text/css">
<![CDATA[
	.st0{fill:#0096FA;}
	.st1{fill-rule:evenodd;clip-rule:evenodd;fill:#FFFFFF;}
]]>
</style>
<g>
	<path class="st0" d="M19.281,10c0,5.126-4.154,9.281-9.281,9.281c-5.125,0-9.281-4.155-9.281-9.281S4.875,0.719,10,0.719
		C15.127,0.719,19.281,4.874,19.281,10"/>
	<path class="st1" d="M14.582,5.819c-1-0.873-2.4-1.378-4.027-1.378c-4.239,0-7.123,3.273-7.123,3.273l0.813,1.29
		c0,0,0.45,0.038,0.211-0.723c0.206-0.388,0.608-0.911,1.394-1.515v8.595c-0.338,0.095-0.786,0.274-0.481,0.58h2.334
		c0.308-0.309-0.177-0.494-0.473-0.58v-2.027c0,0,1.601,0.628,3.325,0.628c1.518,0,2.896-0.451,3.922-1.266
		c1.025-0.811,1.688-2.021,1.684-3.403C16.163,7.937,15.582,6.69,14.582,5.819 M10.413,13.161c-1.328,0.001-2.446-0.256-3.184-0.62
		v-1.847V6.094c0.81-0.575,2.123-0.93,3.184-0.928c1.288,0.001,2.3,0.488,2.983,1.227c0.684,0.744,1.057,1.731,1.06,2.88
		c-0.004,1.118-0.402,2.039-1.112,2.746C12.635,12.72,11.604,13.162,10.413,13.161z"/>
</g>
</svg>
