<?xml version="1.0" encoding="utf-8"?>
<!-- Generator: Adobe Illustrator 16.0.0, SVG Export Plug-In . SVG Version: 6.00 Build 0)  -->
<!DOCTYPE svg PUBLIC "-//W3C//DTD SVG 1.1//EN" "http://www.w3.org/Graphics/SVG/1.1/DTD/svg11.dtd">
<svg version="1.1" id="レイヤー_1" xmlns="http://www.w3.org/2000/svg" xmlns:xlink="http://www.w3.org/1999/xlink" x="0px"
	 y="0px" width="20px" height="20px" viewBox="0 0 20 20" style="enable-background:new 0 0 20 20;" xml:space="preserve">
<style type="text/css">
<![CDATA[
	.st0{fill:#CF2E92;}
	.st1{fill-rule:evenodd;clip-rule:evenodd;fill:#FFFFFF;}
]]>
</style>
<path class="st0" d="M19.281,10c0,5.125-4.155,9.281-9.281,9.281S0.719,15.125,0.719,10c0-5.127,4.155-9.281,9.281-9.281
	S19.281,4.873,19.281,10"/>
<path id="Instagram" class="st1" d="M13.894,6.82c0,0.395-0.319,0.715-0.715,0.715c-0.395,0-0.714-0.32-0.714-0.715
	s0.319-0.715,0.714-0.715C13.574,6.105,13.894,6.426,13.894,6.82z M10,11.984c-1.097,0-1.985-0.889-1.985-1.984
	c0-1.098,0.889-1.986,1.985-1.986c1.096,0,1.985,0.889,1.985,1.986C11.985,11.096,11.096,11.984,10,11.984z M10,6.939
	c-1.69,0-3.059,1.369-3.059,3.061c0,1.688,1.368,3.057,3.059,3.057c1.688,0,3.058-1.369,3.058-3.057
	C13.058,8.309,11.688,6.939,10,6.939z M10,5.117c1.591,0,1.778,0.006,2.406,0.033c0.581,0.027,0.896,0.125,1.106,0.207
	c0.278,0.107,0.476,0.236,0.685,0.445c0.208,0.207,0.338,0.406,0.446,0.684c0.081,0.209,0.178,0.525,0.204,1.105
	C14.877,8.221,14.883,8.41,14.883,10s-0.006,1.777-0.035,2.406c-0.026,0.582-0.123,0.895-0.204,1.105
	c-0.108,0.279-0.238,0.477-0.446,0.686c-0.209,0.207-0.406,0.338-0.685,0.445c-0.211,0.082-0.525,0.178-1.106,0.205
	c-0.628,0.029-0.815,0.035-2.406,0.035s-1.779-0.006-2.407-0.035c-0.581-0.027-0.896-0.123-1.105-0.205
	c-0.278-0.107-0.478-0.238-0.685-0.445c-0.209-0.209-0.338-0.406-0.446-0.686c-0.081-0.211-0.179-0.523-0.205-1.105
	C5.123,11.777,5.117,11.59,5.117,10s0.006-1.779,0.034-2.408c0.026-0.58,0.124-0.896,0.205-1.105
	C5.465,6.209,5.594,6.01,5.803,5.803C6.01,5.594,6.209,5.465,6.487,5.357c0.209-0.082,0.524-0.18,1.105-0.207
	C8.221,5.123,8.409,5.117,10,5.117z M10,4.043c-1.618,0-1.82,0.008-2.456,0.035C6.91,4.109,6.477,4.209,6.098,4.355
	C5.707,4.508,5.374,4.711,5.043,5.043c-0.331,0.33-0.534,0.662-0.687,1.055C4.209,6.477,4.108,6.91,4.08,7.543
	C4.051,8.178,4.044,8.381,4.044,10c0,1.617,0.007,1.818,0.036,2.455c0.028,0.635,0.129,1.066,0.276,1.445
	c0.152,0.393,0.355,0.725,0.687,1.055c0.331,0.332,0.664,0.535,1.055,0.688c0.379,0.146,0.813,0.248,1.446,0.277
	C8.18,15.947,8.382,15.955,10,15.955c1.617,0,1.819-0.008,2.455-0.035c0.634-0.029,1.067-0.131,1.446-0.277
	c0.392-0.152,0.724-0.355,1.055-0.688c0.331-0.33,0.534-0.662,0.688-1.055c0.146-0.379,0.248-0.811,0.275-1.445
	c0.03-0.637,0.037-0.838,0.037-2.455c0-1.619-0.007-1.822-0.037-2.457c-0.027-0.633-0.129-1.066-0.275-1.445
	c-0.153-0.393-0.356-0.725-0.688-1.055c-0.331-0.332-0.663-0.535-1.055-0.688c-0.379-0.146-0.813-0.246-1.446-0.277
	C11.819,4.051,11.617,4.043,10,4.043z"/>
</svg>
