<?xml version="1.0" encoding="utf-8"?>
<!-- Generator: Adobe Illustrator 16.0.0, SVG Export Plug-In . SVG Version: 6.00 Build 0)  -->
<!DOCTYPE svg PUBLIC "-//W3C//DTD SVG 1.1//EN" "http://www.w3.org/Graphics/SVG/1.1/DTD/svg11.dtd">
<svg version="1.1" id="レイヤー_1" xmlns="http://www.w3.org/2000/svg" xmlns:xlink="http://www.w3.org/1999/xlink" x="0px"
	 y="0px" width="20px" height="20px" viewBox="0 0 20 20" style="enable-background:new 0 0 20 20;" xml:space="preserve">
<style type="text/css">
<![CDATA[
	.st0{fill:#FF0000;}
	.st1{fill:#FFFFFF;}
]]>
</style>
<path class="st0" d="M10.014,0.726c-5.139,0-9.295,4.158-9.295,9.268c0,5.111,4.156,9.281,9.295,9.281
	c5.11,0,9.268-4.17,9.268-9.281C19.281,4.856,15.124,0.726,10.014,0.726"/>
<path class="st1" d="M16.139,6.632c-0.147-0.556-0.581-0.992-1.132-1.141c-1-0.27-5.007-0.27-5.007-0.27s-4.007,0-5.007,0.27
	C4.442,5.64,4.009,6.076,3.861,6.632C3.594,7.637,3.594,9.735,3.594,9.735s0,2.099,0.268,3.104c0.147,0.556,0.581,0.991,1.132,1.141
	c1,0.27,5.007,0.27,5.007,0.27s4.007,0,5.007-0.27c0.551-0.149,0.984-0.585,1.132-1.141c0.268-1.005,0.268-3.104,0.268-3.104
	S16.406,7.637,16.139,6.632"/>
<polygon class="st0" points="8.689,11.641 12.038,9.735 8.689,7.83 "/>
</svg>
