<?xml version="1.0" encoding="utf-8"?>
<!-- Generator: Adobe Illustrator 16.0.0, SVG Export Plug-In . SVG Version: 6.00 Build 0)  -->
<!DOCTYPE svg PUBLIC "-//W3C//DTD SVG 1.1//EN" "http://www.w3.org/Graphics/SVG/1.1/DTD/svg11.dtd">
<svg version="1.1" id="レイヤー_1" xmlns="http://www.w3.org/2000/svg" xmlns:xlink="http://www.w3.org/1999/xlink" x="0px"
	 y="0px" width="20px" height="20px" viewBox="0 0 20 20" style="enable-background:new 0 0 20 20;" xml:space="preserve">
<style type="text/css">
<![CDATA[
	.st0{fill:#FFFFFF;}
	.st1{fill:#41C9B4;}
]]>
</style>
<path class="st1" d="M19.234,10c0,5.125-4.153,9.281-9.28,9.281c-5.126,0-9.282-4.156-9.282-9.281c0-5.127,4.156-9.281,9.282-9.281
	C15.081,0.719,19.234,4.874,19.234,10"/>
<path id="Shape" class="st0" d="M8.659,7.971V7.135c0-0.151,0.008-0.203,0.031-0.28C8.753,6.64,8.964,6.48,9.215,6.48
	s0.462,0.164,0.524,0.375c0.023,0.077,0.031,0.129,0.031,0.28v1.288c0,0.078,0,0.157-0.016,0.228
	C9.712,8.845,9.536,9.021,9.34,9.064C9.27,9.08,9.191,9.08,9.112,9.08H7.821c-0.152,0-0.203-0.008-0.282-0.031
	C7.328,8.986,7.163,8.775,7.163,8.526c0-0.25,0.165-0.461,0.376-0.523c0.079-0.024,0.13-0.031,0.282-0.031H8.659z M13.263,13.809
	H6.333V7.725c0-0.078,0.028-0.145,0.083-0.198l1.797-1.792C8.268,5.68,8.335,5.653,8.412,5.653h4.851V13.809z M14.05,4.279
	c-0.035-0.004-0.082-0.008-0.172-0.008H8.229c-0.063,0-0.126,0.004-0.169,0.008C7.802,4.302,7.571,4.423,7.387,4.606L5.284,6.702
	C5.101,6.886,4.979,7.117,4.956,7.375C4.952,7.417,4.948,7.479,4.948,7.542v6.88c0,0.09,0.004,0.137,0.008,0.172
	c0.031,0.293,0.297,0.559,0.591,0.59c0.035,0.004,0.083,0.008,0.172,0.008h8.159c0.09,0,0.137-0.004,0.172-0.008
	c0.293-0.031,0.56-0.297,0.591-0.59c0.004-0.035,0.008-0.082,0.008-0.172V5.04c0-0.089-0.004-0.137-0.008-0.171
	C14.609,4.575,14.343,4.31,14.05,4.279z"/>
</svg>
