<?xml version="1.0" encoding="utf-8"?>
<!-- Generator: Adobe Illustrator 16.0.0, SVG Export Plug-In . SVG Version: 6.00 Build 0)  -->
<!DOCTYPE svg PUBLIC "-//W3C//DTD SVG 1.1//EN" "http://www.w3.org/Graphics/SVG/1.1/DTD/svg11.dtd">
<svg version="1.1" id="レイヤー_1" xmlns="http://www.w3.org/2000/svg" xmlns:xlink="http://www.w3.org/1999/xlink" x="0px"
	 y="0px" width="20px" height="20px" viewBox="0 0 20 20" style="enable-background:new 0 0 20 20;" xml:space="preserve">
<style type="text/css">
<![CDATA[
	.st0{fill:#FFFFFF;}
	.st1{fill:#00B900;}
]]>
</style>
<path class="st1" d="M19.281,10.142c0,5.125-4.155,9.281-9.281,9.281s-9.281-4.156-9.281-9.281C0.719,5.015,4.874,0.86,10,0.86
	S19.281,5.015,19.281,10.142"/>
<path class="st0" d="M16.739,9.38c0-3.017-3.023-5.47-6.739-5.47c-3.717,0-6.74,2.453-6.74,5.47c0,2.703,2.397,4.968,5.637,5.396
	c0.22,0.047,0.518,0.145,0.595,0.332c0.066,0.171,0.044,0.438,0.021,0.609c0,0-0.079,0.476-0.096,0.577
	C9.387,16.465,9.28,16.961,10,16.658c0.719-0.304,3.882-2.286,5.295-3.913l0,0C16.271,11.674,16.739,10.587,16.739,9.38"/>
<path class="st1" d="M8.63,7.923H8.157c-0.072,0-0.131,0.059-0.131,0.131v2.937c0,0.073,0.059,0.131,0.131,0.131H8.63
	c0.073,0,0.132-0.058,0.132-0.131V8.054C8.762,7.981,8.703,7.923,8.63,7.923"/>
<path class="st1" d="M11.884,7.923h-0.472c-0.073,0-0.132,0.059-0.132,0.131v1.745L9.935,7.98c-0.003-0.005-0.007-0.009-0.01-0.013
	C9.924,7.967,9.924,7.967,9.924,7.967C9.921,7.963,9.918,7.961,9.915,7.959C9.914,7.957,9.914,7.957,9.913,7.956
	C9.911,7.954,9.908,7.953,9.906,7.95C9.905,7.949,9.903,7.948,9.902,7.948C9.9,7.946,9.897,7.944,9.896,7.943
	C9.895,7.942,9.894,7.941,9.893,7.941C9.89,7.938,9.888,7.938,9.885,7.937c-0.001,0-0.003-0.001-0.004-0.002
	C9.878,7.933,9.876,7.932,9.874,7.932C9.871,7.931,9.87,7.931,9.869,7.93c-0.003,0-0.006-0.001-0.008-0.002
	c-0.002,0-0.003-0.002-0.005-0.002S9.852,7.925,9.85,7.925C9.847,7.924,9.845,7.924,9.844,7.924c-0.003,0-0.005,0-0.007-0.001
	c-0.003,0-0.005,0-0.007,0s-0.004,0-0.005,0H9.352c-0.071,0-0.13,0.059-0.13,0.131v2.937c0,0.073,0.059,0.131,0.13,0.131h0.474
	c0.072,0,0.132-0.058,0.132-0.131V9.246l1.348,1.819c0.009,0.014,0.021,0.024,0.032,0.032c0.001,0.001,0.001,0.001,0.002,0.001
	c0.003,0.003,0.005,0.004,0.009,0.006c0.001,0,0.002,0.001,0.003,0.001c0.003,0.002,0.004,0.003,0.006,0.004
	s0.005,0.002,0.007,0.002c0.001,0.001,0.003,0.001,0.004,0.003c0.003,0.001,0.006,0.001,0.009,0.002c0,0,0.001,0.001,0.003,0.001
	c0.01,0.003,0.021,0.004,0.033,0.004h0.472c0.073,0,0.132-0.058,0.132-0.131V8.054C12.016,7.981,11.957,7.923,11.884,7.923"/>
<path class="st1" d="M7.491,10.387H6.206V8.054c0-0.073-0.06-0.131-0.131-0.131H5.603c-0.073,0-0.133,0.058-0.133,0.131v2.937l0,0
	c0,0.036,0.016,0.067,0.037,0.09c0.002,0.002,0.002,0.003,0.003,0.003c0,0.001,0.001,0.001,0.001,0.002
	c0.024,0.022,0.056,0.037,0.092,0.037l0,0h1.889c0.072,0,0.131-0.059,0.131-0.132v-0.473C7.622,10.444,7.563,10.387,7.491,10.387"/>
<path class="st1" d="M14.494,8.658c0.073,0,0.132-0.059,0.132-0.132V8.054c0-0.072-0.059-0.131-0.132-0.131h-1.888h-0.001
	c-0.034,0-0.066,0.014-0.09,0.037c-0.001,0-0.001,0.001-0.001,0.001c-0.002,0.001-0.003,0.001-0.003,0.002
	c-0.022,0.023-0.037,0.056-0.037,0.091l0,0v2.937l0,0c0,0.036,0.015,0.067,0.037,0.09c0,0.002,0.001,0.003,0.003,0.003
	c0,0.001,0.001,0.001,0.001,0.002c0.024,0.022,0.056,0.037,0.09,0.037h0.001h1.888c0.073,0,0.132-0.061,0.132-0.132v-0.473
	c0-0.073-0.059-0.131-0.132-0.131h-1.283V9.889h1.283c0.073,0,0.132-0.058,0.132-0.13V9.285c0-0.073-0.059-0.131-0.132-0.131h-1.283
	V8.658H14.494z"/>
</svg>
