<?xml version="1.0" encoding="utf-8"?>
<!-- Generator: Adobe Illustrator 16.0.0, SVG Export Plug-In . SVG Version: 6.00 Build 0)  -->
<!DOCTYPE svg PUBLIC "-//W3C//DTD SVG 1.1//EN" "http://www.w3.org/Graphics/SVG/1.1/DTD/svg11.dtd">
<svg version="1.1" id="レイヤー_1" xmlns="http://www.w3.org/2000/svg" xmlns:xlink="http://www.w3.org/1999/xlink" x="0px"
	 y="0px" width="20px" height="20px" viewBox="0 0 20 20" style="enable-background:new 0 0 20 20;" xml:space="preserve">
<style type="text/css">
<![CDATA[
	.st0{fill:#1D9BF0;}
	.st1{fill:#FFFFFF;}
]]>
</style>
<path class="st0" d="M19.281,9.892c0,5.126-4.155,9.281-9.281,9.281s-9.281-4.155-9.281-9.281S4.874,0.61,10,0.61
	S19.281,4.766,19.281,9.892"/>
<path class="st1" d="M8.302,14.788c4.115,0,6.366-3.41,6.366-6.367c0-0.097-0.002-0.193-0.007-0.289
	c0.437-0.315,0.816-0.71,1.117-1.158c-0.401,0.178-0.833,0.298-1.286,0.352c0.462-0.276,0.816-0.715,0.985-1.237
	c-0.434,0.257-0.912,0.442-1.422,0.543c-0.408-0.435-0.989-0.707-1.633-0.707c-1.236,0-2.238,1.003-2.238,2.238
	c0,0.174,0.02,0.346,0.059,0.51C8.384,8.577,6.734,7.688,5.632,6.334c-0.193,0.33-0.304,0.715-0.304,1.124
	c0,0.777,0.396,1.462,0.996,1.863C5.957,9.31,5.611,9.209,5.311,9.041c0,0.009,0,0.019,0,0.028c0,1.084,0.771,1.988,1.794,2.193
	c-0.188,0.052-0.386,0.079-0.589,0.079c-0.145,0-0.285-0.015-0.421-0.041c0.285,0.89,1.11,1.536,2.09,1.555
	c-0.765,0.601-1.73,0.957-2.778,0.957c-0.181,0-0.359-0.01-0.534-0.03C5.862,14.416,7.039,14.788,8.302,14.788"/>
</svg>
