<?xml version="1.0" encoding="utf-8"?>
<!-- Generator: Adobe Illustrator 16.0.0, SVG Export Plug-In . SVG Version: 6.00 Build 0)  -->
<!DOCTYPE svg PUBLIC "-//W3C//DTD SVG 1.1//EN" "http://www.w3.org/Graphics/SVG/1.1/DTD/svg11.dtd">
<svg version="1.1" id="レイヤー_1" xmlns="http://www.w3.org/2000/svg" xmlns:xlink="http://www.w3.org/1999/xlink" x="0px"
	 y="0px" width="20px" height="20px" viewBox="0 0 20 20" style="enable-background:new 0 0 20 20;" xml:space="preserve">
<style type="text/css">
<![CDATA[
	.st0{fill:#FFFFFF;}
	.st1{fill:#39475D;}
]]>
</style>
<path class="st1" d="M10.014,0.726c-5.139,0-9.295,4.157-9.295,9.268c0,5.111,4.156,9.281,9.295,9.281
	c5.11,0,9.268-4.17,9.268-9.281C19.281,4.855,15.124,0.726,10.014,0.726"/>
<path class="st0" d="M10.732,12.084c0,0.837,0.423,1.126,1.095,1.126h0.953v2.126h-1.806c-1.625,0-2.837-0.837-2.837-2.837V9.295
	H6.661V7.56c1.626-0.422,2.306-1.821,2.384-3.032h1.688v2.751h1.97v2.017h-1.97V12.084"/>
</svg>
